<svg xmlns="http://www.w3.org/2000/svg" role="img" viewBox="0 0 1200 600"><title>Evaluation B: blocked and unknown reasons</title><desc>Normalized reasons from threat-model applicability only.</desc><rect width="1200" height="600" fill="white"/><text x="600.0" y="34" text-anchor="middle" font-family="sans-serif" font-size="20" font-weight="bold">Evaluation B: blocked and unknown reasons</text><line x1="100" y1="420" x2="1160" y2="420" stroke="#374151"/><line x1="100" y1="70" x2="100" y2="420" stroke="#374151"/><line x1="100" y1="420.00" x2="1160" y2="420.00" stroke="#e5e7eb"/><text x="88" y="424.00" text-anchor="end" font-family="sans-serif" font-size="12">0</text><line x1="100" y1="70.00" x2="1160" y2="70.00" stroke="#e5e7eb"/><text x="88" y="74.00" text-anchor="end" font-family="sans-serif" font-size="12">1</text><text x="24" y="245.00" text-anchor="middle" font-family="sans-serif" font-size="13" transform="rotate(-90 24 245.00)">Occurrences</text><rect x="183.00" y="70.00" width="46.00" height="350.00" fill="#dc2626"><title>通信経路不成立 blocked: 1</title></rect><rect x="229.00" y="420.00" width="46.00" height="0.00" fill="#d97706"><title>通信経路不成立 unknown: 0</title></rect><text x="206.00" y="448" text-anchor="middle" font-family="sans-serif" font-size="12" transform="rotate(-38 206.00 448)">通信経路不成立</text><rect x="395.00" y="70.00" width="46.00" height="350.00" fill="#dc2626"><title>信頼境界条件不成立 blocked: 1</title></rect><rect x="441.00" y="70.00" width="46.00" height="350.00" fill="#d97706"><title>信頼境界条件不成立 unknown: 1</title></rect><text x="418.00" y="448" text-anchor="middle" font-family="sans-serif" font-size="12" transform="rotate(-38 418.00 448)">信頼境界条件不成立</text><rect x="607.00" y="420.00" width="46.00" height="0.00" fill="#dc2626"><title>認証条件不成立 blocked: 0</title></rect><rect x="653.00" y="70.00" width="46.00" height="350.00" fill="#d97706"><title>認証条件不成立 unknown: 1</title></rect><text x="630.00" y="448" text-anchor="middle" font-family="sans-serif" font-size="12" transform="rotate(-38 630.00 448)">認証条件不成立</text><rect x="819.00" y="420.00" width="46.00" height="0.00" fill="#dc2626"><title>認可条件不成立 blocked: 0</title></rect><rect x="865.00" y="70.00" width="46.00" height="350.00" fill="#d97706"><title>認可条件不成立 unknown: 1</title></rect><text x="842.00" y="448" text-anchor="middle" font-family="sans-serif" font-size="12" transform="rotate(-38 842.00 448)">認可条件不成立</text><rect x="1031.00" y="70.00" width="46.00" height="350.00" fill="#dc2626"><title>権限不足 blocked: 1</title></rect><rect x="1077.00" y="420.00" width="46.00" height="0.00" fill="#d97706"><title>権限不足 unknown: 0</title></rect><text x="1054.00" y="448" text-anchor="middle" font-family="sans-serif" font-size="12" transform="rotate(-38 1054.00 448)">権限不足</text><rect x="100" y="526" width="14" height="14" fill="#dc2626"/><text x="122" y="538" font-family="sans-serif" font-size="13">blocked</text><rect x="230" y="526" width="14" height="14" fill="#d97706"/><text x="252" y="538" font-family="sans-serif" font-size="13">unknown</text></svg>